<?xml version="1.0" standalone="no"?>
<!DOCTYPE svg PUBLIC "-//W3C//DTD SVG 1.1//EN" "http://www.w3.org/Graphics/SVG/1.1/DTD/svg11.dtd" >
<!--
2013-9-30: Created.
-->
<svg>
<metadata>
Created by iconfont
</metadata>
<defs>

<font id="iconfont" horiz-adv-x="1024" >
  <font-face
    font-family="iconfont"
    font-weight="500"
    font-stretch="normal"
    units-per-em="1024"
    ascent="896"
    descent="-128"
  />
    <missing-glyph />
    
    <glyph glyph-name="x" unicode="x" horiz-adv-x="1001"
d="M281 543q-27 -1 -53 -1h-83q-18 0 -36.5 -6t-32.5 -18.5t-23 -32t-9 -45.5v-76h912v41q0 16 -0.5 30t-0.5 18q0 13 -5 29t-17 29.5t-31.5 22.5t-49.5 9h-133v-97h-438v97zM955 310v-52q0 -23 0.5 -52t0.5 -58t-10.5 -47.5t-26 -30t-33 -16t-31.5 -4.5q-14 -1 -29.5 -0.5
t-29.5 0.5h-32l-45 128h-439l-44 -128h-29h-34q-20 0 -45 1q-25 0 -41 9.5t-25.5 23t-13.5 29.5t-4 30v167h911zM163 247q-12 0 -21 -8.5t-9 -21.5t9 -21.5t21 -8.5q13 0 22 8.5t9 21.5t-9 21.5t-22 8.5zM316 123q-8 -26 -14 -48q-5 -19 -10.5 -37t-7.5 -25t-3 -15t1 -14.5
t9.5 -10.5t21.5 -4h37h67h81h80h64h36q23 0 34 12t2 38q-5 13 -9.5 30.5t-9.5 34.5q-5 19 -11 39h-368zM336 498v228q0 11 2.5 23t10 21.5t20.5 15.5t34 6h188q31 0 51.5 -14.5t20.5 -52.5v-227h-327z" />
    

    
    <glyph glyph-name="sousuo" unicode="&#58880;" d="M941.2204-54.4087 729.1415 162.2494c-3.5038 3.5796-7.5302 6.2927-11.8265 8.1565 45.562 61.1346 72.6167 137.4528 72.6167 220.2407 0 200.9657-159.4115 363.8363-356.0642 363.8363C237.2159 754.4829 77.8104 591.6113 77.8104 390.6465c0-200.9697 159.4055-363.8373 356.0582-363.8373 90.2555 0 172.664 34.3107 235.419 90.8634 1.7369-3.4746 4.0194-6.7354 6.8626-9.6405l212.0269-216.6571c14.6197-14.9419 38.3716-14.9419 53.0432 0C955.8401-93.6831 955.8401-69.3496 941.2204-54.4087zM433.8686 84.2283c-165.5905 0-299.865 137.2-299.865 306.4182 0 169.2702 134.2735 306.4123 299.865 306.4123 165.5965 0 299.865-137.142 299.865-306.4123C733.7336 221.4283 599.4641 84.2283 433.8686 84.2283z"  horiz-adv-x="1000" />

    
    <glyph glyph-name="all" unicode="&#59030;" d="M460.8 409.6 486.4 409.6 486.4 435.2 486.4 652.8C486.4 787.115651 377.51565 896 243.2 896 108.884349 896 0 787.115651 0 652.8 0 518.48435 108.884349 409.6 243.2 409.6L460.8 409.6ZM51.2 652.8C51.2 758.838672 137.161328 844.8 243.2 844.8 349.238671 844.8 435.2 758.838672 435.2 652.8L435.2 435.2 460.8 460.8 243.2 460.8C137.161328 460.8 51.2 546.761329 51.2 652.8ZM460.8 307.2 435.2 332.8 435.2 115.2C435.2 9.161329 349.238671-76.8 243.2-76.8 137.161328-76.8 51.2 9.161329 51.2 115.2 51.2 221.238671 137.161328 307.2 243.2 307.2L460.8 307.2ZM0 115.2C0-19.11565 108.884349-128 243.2-128 377.51565-128 486.4-19.11565 486.4 115.2L486.4 332.8 486.4 358.4 460.8 358.4 243.2 358.4C108.884349 358.4 0 249.51565 0 115.2ZM563.2 460.8 588.8 435.2 588.8 652.8C588.8 758.838672 674.761329 844.8 780.8 844.8 886.838671 844.8 972.8 758.838672 972.8 652.8 972.8 546.761329 886.838671 460.8 780.8 460.8L563.2 460.8ZM1024 652.8C1024 787.115651 915.11565 896 780.8 896 646.48435 896 537.6 787.115651 537.6 652.8L537.6 435.2 537.6 409.6 563.2 409.6 780.8 409.6C915.11565 409.6 1024 518.48435 1024 652.8ZM1024 115.2C1024 249.51565 915.11565 358.4 780.8 358.4L563.2 358.4 537.6 358.4 537.6 332.8 537.6 115.2C537.6-19.11565 646.48435-128 780.8-128 818.513163-128 855.051123-119.390662 888.179087-103.065099 900.861235-96.815296 906.075682-81.467919 899.825882-68.785773 893.576079-56.103625 878.228702-50.889178 865.546554-57.138978 839.420429-70.014014 810.620764-76.8 780.8-76.8 674.761329-76.8 588.8 9.161329 588.8 115.2L588.8 332.8 563.2 307.2 780.8 307.2C886.838671 307.2 972.8 221.238671 972.8 115.2 972.8 96.530451 970.142607 78.244269 964.968006 60.720557 960.963957 47.160894 968.71031 32.92269 982.269973 28.918639 995.829636 24.914588 1010.06784 32.660943 1014.071891 46.220606 1020.63305 68.439878 1024 91.608704 1024 115.2Z"  horiz-adv-x="1024" />

    
    <glyph glyph-name="back" unicode="&#59031;" d="M363.840919 423.021263C336.938714 398.641139 337.301807 358.513862 364.730379 334.513862L673.951902 63.94503C682.818816 56.186481 696.296418 57.084988 704.05497 65.951902 711.813519 74.818816 710.915012 88.296418 702.048098 96.05497L392.826577 366.623802C384.59578 373.825747 384.502227 384.164713 392.492414 391.40582L702.325747 672.192277C711.056111 680.104171 711.719614 693.595384 703.807723 702.325748 695.895829 711.056111 682.404617 711.719614 673.674253 703.807722L363.840919 423.021263Z"  horiz-adv-x="1024" />

    
    <glyph glyph-name="cart" unicode="&#59032;" d="M235.097303 196.866982C247.384597 160.417152 286.382106 132.376068 324.772759 132.376068L861.658537 132.376068 880.429732 132.376068 885.649214 150.541854 1009.08775 580.154957C1021.388907 622.967661 993.187631 660.786325 949.051586 660.786325L424.585365 660.786325C410.791718 660.786325 399.609756 649.520738 399.609756 635.623932 399.609756 621.727125 410.791718 610.461538 424.585365 610.461538L949.051586 610.461538C959.924 610.461538 964.161052 604.779539 961.106394 594.148171L837.667859 164.535068 861.658537 182.700855 324.772759 182.700855C307.742153 182.700855 287.789837 197.047529 282.395194 213.050549L73.600164 832.433664C69.16437 845.592294 54.980454 852.636656 41.919502 848.167687 28.858551 843.698719 21.86648 829.408727 26.302275 816.250097L235.097303 196.866982ZM399.609756-6.017094C399.609756 49.570129 354.881911 94.632478 299.707317 94.632478 244.532723 94.632478 199.804878 49.570129 199.804878-6.017094 199.804878-61.604318 244.532723-106.666667 299.707317-106.666667 354.881911-106.666667 399.609756-61.604318 399.609756-6.017094ZM249.756098-6.017094C249.756098 21.776518 272.120021 44.307693 299.707317 44.307693 327.294613 44.307693 349.658537 21.776518 349.658537-6.017094 349.658537-33.810705 327.294613-56.341879 299.707317-56.341879 272.120021-56.341879 249.756098-33.810705 249.756098-6.017094ZM924.097562-6.017094C924.097562 49.570129 879.369715 94.632478 824.195121 94.632478 769.020529 94.632478 724.292683 49.570129 724.292683-6.017094 724.292683-61.604318 769.020529-106.666667 824.195121-106.666667 879.369715-106.666667 924.097562-61.604318 924.097562-6.017094ZM774.243902-6.017094C774.243902 21.776518 796.607825 44.307693 824.195121 44.307693 851.782419 44.307693 874.146342 21.776518 874.146342-6.017094 874.146342-33.810705 851.782419-56.341879 824.195121-56.341879 796.607825-56.341879 774.243902-33.810705 774.243902-6.017094Z"  horiz-adv-x="1024" />

    
    <glyph glyph-name="global" unicode="&#59070;" d="M512 726.496c-0.128 0-0.224 0-0.352 0-0.064 0-0.096 0-0.16 0-0.16 0-0.32-0.032-0.512-0.032-235.104-0.544-425.472-191.264-425.472-426.464 0-235.136 190.368-425.888 425.472-426.464 0.16 0 0.32-0.032 0.512-0.032 0.064 0 0.128 0 0.16 0 0.128 0 0.256 0 0.352 0 235.52 0 426.496 190.976 426.496 426.496s-190.976 426.496-426.496 426.496zM529.056 471.264c45.216 1.248 89.216 7.2 131.584 17.536 12.768-50.272 20.704-108.224 21.952-171.744l-153.536 0 0 154.208zM529.056 505.376l0 184.288c45.984-12.736 92.576-74.048 122.272-168.064-39.392-9.504-80.288-15.04-122.272-16.224zM494.944 690.08l0-184.704c-42.336 1.184-83.552 6.816-123.264 16.48 29.952 94.592 76.96 156.128 123.264 168.192zM494.944 471.296l0-154.24-154.592 0c1.248 63.616 9.184 121.632 21.984 171.936 42.688-10.432 87.04-16.48 132.608-17.696zM306.016 317.056l-185.952 0c3.776 87.712 36.448 168.064 88.736 231.712 37.984-20.928 78.272-38.048 120.512-50.848-13.792-54.4-22.048-115.744-23.296-180.864zM306.016 282.944c1.248-65.088 9.504-126.432 23.296-180.832-42.208-12.832-82.528-29.952-120.512-50.88-52.32 63.648-84.992 144-88.736 231.712l185.952 0zM340.352 282.944l154.592 0 0-154.048c-45.568-1.216-89.92-7.296-132.64-17.76-12.768 50.272-20.704 108.256-21.952 171.808zM494.944 94.816l0-184.896c-46.336 12.096-93.408 73.696-123.328 168.416 39.712 9.664 80.96 15.296 123.328 16.48zM529.056-89.696l0 184.48c42.016-1.216 82.912-6.752 122.304-16.256-29.696-94.112-76.288-155.52-122.304-168.224zM529.056 128.896l0 154.048 153.536 0c-1.248-63.456-9.152-121.312-21.888-171.552-42.4 10.336-86.4 16.32-131.616 17.536zM716.928 282.944l187.04 0c-3.776-87.712-36.416-168.032-88.736-231.68-38.304 21.056-78.944 38.304-121.504 51.168 13.76 54.336 21.984 115.552 23.232 180.48zM716.928 317.056c-1.248 65.056-9.504 126.272-23.264 180.672 42.56 12.864 83.168 30.08 121.44 51.136 52.352-63.648 85.056-144.032 88.832-231.808l-187.04 0zM791.616 574.912c-33.952-18.048-69.76-32.992-107.2-44.32-19.936 64.16-47.936 116.544-81.056 150.944 72.64-17.44 137.504-55.008 188.256-106.624zM419.296 681.216c-32.928-34.336-60.8-86.464-80.672-150.304-37.056 11.296-72.576 26.08-106.208 44 50.4 51.264 114.784 88.768 186.88 106.304zM232.288 25.216c33.664 17.952 69.216 32.768 106.304 44.064 19.872-63.904 47.744-116.128 80.704-150.464-72.16 17.568-136.576 55.072-187.008 106.432zM603.36-81.504c33.152 34.4 61.152 86.784 81.12 151.072 37.44-11.36 73.28-26.24 107.232-44.384-50.752-51.648-115.648-89.312-188.352-106.688z"  horiz-adv-x="1024" />

    
    <glyph glyph-name="person" unicode="&#58897;" d="M890.944-24.512c0-11.072-8.96-20.032-20.032-20.032l-764.416 0c-5.504 0-10.88 2.304-14.656 6.4-3.84 4.032-5.76 9.344-5.44 14.912 3.328 54.656 25.024 97.536 66.624 131.008 34.688 27.968 78.528 45.184 117.184 60.416 47.232 18.56 88.192 34.56 100.544 62.912 1.92 22.912 1.792 40.704 1.6 61.056 0 3.072 0 6.208-0.064 9.408-18.56 18.496-37.504 57.728-44.48 92.544-6.528 3.328-12.608 8.384-17.664 14.976-10.112 12.672-16.512 31.04-19.392 54.528-2.688 22.464 4.032 39.488 13.184 50.624-24.64 102.08-17.344 179.84 21.44 230.976 32.832 43.264 87.04 65.92 161.024 67.2 0.192 0.064 0.256 0.064 0.384 0.064 48.512 0 84.992-13.12 104-37.184 34.368-6.72 60.48-24.32 77.888-52.16 18.56-29.952 25.984-71.04 21.888-121.984-2.88-36.352-10.88-68.544-16.512-87.616 8.768-11.136 15.232-28.032 12.608-49.984-2.88-23.488-9.408-41.856-19.392-54.592-5.12-6.592-11.136-11.648-17.664-14.912-4.544-23.488-13.44-44.096-18.88-55.296-5.952-12.352-14.592-27.264-24.576-37.248 0-3.264-0.064-6.4-0.064-9.472-0.192-20.352-0.32-38.144 1.536-60.864 12.352-28.352 53.12-44.352 100.096-62.912 49.088-19.392 104.576-41.344 141.76-84.48 7.232-8.448 6.336-21.056-2.112-28.288-8.384-7.232-21.12-6.272-28.352 2.112-30.656 35.648-79.104 54.72-126.016 73.28-54.848 21.696-106.624 42.112-124.032 88.704-0.576 1.6-1.024 3.456-1.088 5.184-2.432 26.176-2.24 46.4-2.048 67.712 0 6.08 0.128 12.288 0.128 18.752 0 7.36 4.032 14.144 10.496 17.664 7.424 5.184 31.04 44.48 35.072 82.752 0.96 9.472 8.704 16.96 18.368 17.792 2.496 0.192 12.992 7.424 16.768 39.04 1.984 16.256-6.016 21.888-6.08 22.016-7.936 4.864-11.52 14.656-8.576 23.488 15.424 46.464 33.28 138.304 2.368 188.032-12.224 19.904-31.36 31.296-58.176 35.008-6.272 0.896-11.648 4.672-14.784 9.984-8.96 15.744-36.8 25.216-74.496 25.216-60.928-1.088-104.512-18.368-129.536-51.2-16.512-21.824-25.728-51.392-27.2-87.808-1.536-34.304 3.712-74.88 15.552-120.512 2.24-8.576-1.408-17.536-8.96-22.208 0-0.128-8-5.76-5.952-22.016 3.712-31.616 14.08-38.848 16.704-39.04 9.6-0.832 17.28-8.32 18.368-17.792 4.032-38.144 28.352-77.44 36.032-82.88 6.4-3.584 10.496-10.304 10.496-17.728 0-6.464 0.064-12.544 0.064-18.432 0.192-21.504 0.384-41.664-2.048-67.968-0.064-1.728-0.512-3.584-1.088-5.184-17.344-46.592-69.312-67.008-124.416-88.704-37.76-14.848-76.8-30.208-106.688-54.336-27.008-21.824-42.944-47.808-49.152-80.704l741.76 0c11.136 0.064 20.096-9.088 20.096-20.224l0 0z"  horiz-adv-x="1024" />

    
    <glyph glyph-name="message" unicode="&#59125;" d="M1024.297488 444.310143c-0.626883-6.929456-1.319215-13.854821-1.870421-20.791435-2.953404-37.259118-11.739987-73.140731-25.518109-107.82687-23.436-59.000592-59.120242-109.708541-105.256959-152.981846-73.633647-69.059348-161.002466-111.503286-259.408712-132.103486-35.121786-7.351809-70.631156-11.152987-106.487203-12.103026-2.489123-0.066472-5.574448-1.339667-7.295563-3.108847-43.14752-44.355266-93.642757-78.755063-147.501481-108.443526-20.220798-11.145829-41.076659-21.200494-61.986721-31.01995-23.016715-10.808355-47.728978 1.610669-52.54769 25.749227-1.553401 7.783366 0.185099 15.114722 2.798985 22.458349 10.47395 29.427688 20.859952 58.888101 31.040402 88.419077 2.157785 6.260645 3.082258 12.937506 5.027332 19.285076 1.024692 3.347123 0.037838 5.088691-2.544346 7.077739-25.58049 19.712542-51.217226 39.355545-76.54001 59.397379-25.83513 20.447825-52.28896 40.256497-76.789536 62.22193-55.946969 50.15981-96.879435 110.710735-120.26328 182.494414-10.142612 31.137554-16.013628 63.143335-17.354319 95.926328-0.086925 2.123015-0.525641 4.233758-0.800733 6.348592 0 7.661671 0 15.322319 0 22.98399 0.256684 1.611692 0.60643 3.217247 0.756759 4.838143 1.104459 11.917927 1.770202 23.893123 3.319512 35.75276 5.473206 41.923411 18.211297 81.679833 37.109812 119.41346 30.414543 60.72273 73.380031 111.254783 126.992296 152.553357C257.483068 848.877452 358.095164 884.640438 468.836578 893.058867c8.276282 0.629951 16.550518 1.294671 24.824754 1.942007 12.658324 0 25.315625 0 37.973949 0 1.798836-0.246458 3.590513-0.546093 5.394463-0.731193 24.800211-2.556617 49.783475-3.962757 74.367908-7.869268 55.842659-8.873507 109.164492-26.181807 159.618824-51.860471C855.27338 791.656265 923.907306 731.689272 971.726277 649.347786c26.711538-45.994569 43.373524-95.48659 49.620875-148.370731 1.282399-10.859488 1.98189-21.787493 2.950336-32.683796C1024.297488 460.299228 1024.297488 452.305197 1024.297488 444.310143zM352.875574-25.840537c2.197668 1.337622 3.603808 2.193578 5.01097 3.048511 28.705699 17.458628 54.737177 38.440276 79.639653 60.855674 14.724071 13.254527 28.98795 27.016287 43.635322 40.355693 10.298055 9.379718 22.020656 14.642259 36.557583 14.468409 14.937804-0.178963 29.935944 1.143319 44.843068 2.517757 50.725333 4.674519 99.572064 17.058774 146.362252 37.177307 68.553137 29.475753 127.403401 71.92685 172.46327 131.983836 48.139059 64.162914 71.457455 136.047835 65.130338 216.723429-2.786713 35.521641-11.686809 69.49295-26.464057 101.830069-32.314621 70.7099-83.940906 124.16161-149.499733 164.59707-61.73106 38.072123-129.139855 59.790076-201.155675 67.649117-47.123571 5.142891-94.082495 4.03332-140.824619-3.622215-54.268805-8.888847-105.823505-25.99364-154.09244-52.548713-63.086067-34.706592-115.133683-81.242141-152.281333-143.438505-26.123516-43.741677-41.136996-91.135227-44.098581-142.038501-2.735581-47.019261 5.248224-92.541367 21.785448-136.513139 23.284648-61.912068 58.850263-115.310601 110.084875-157.8476 44.443213-36.898124 91.721204-69.606464 142.402563-97.310992 9.210981-5.035514 13.272935-12.456862 14.354895-22.344836 1.636235-14.951098-0.667788-29.589266-3.742888-44.080174C360.099552 2.011252 356.424159-11.429396 352.875574-25.840537zM513.19798 485.87256c-71.099528 0-142.199056 0.022498-213.299607-0.024544-10.433044-0.007159-20.09808 1.942007-28.385611 8.844873-11.846342 9.86752-16.746866 25.824903-12.214495 40.527498 4.567141 14.817131 17.446357 25.365735 32.76663 26.77801 2.151649 0.198394 4.323751 0.233164 6.48665 0.233164 143.031491 0.010226 286.064005-0.021476 429.095496 0.049087 16.87981 0.009204 29.625059-6.668681 37.353202-21.860101 11.691922-22.981945-4.850414-52.19999-30.530102-54.104159-3.647782-0.269979-7.312948-0.424398-10.971979-0.425421C653.397761 485.865401 583.297359 485.87256 513.19798 485.87256zM513.166278 383.277551c54.626731 0 109.254485 0.016362 163.882239-0.010226 16.152708-0.008181 28.669907-6.49074 36.335668-21.09107 12.221654-23.279535-3.433026-52.189764-29.670056-54.838419-3.799133-0.384515-7.632014-0.607452-11.449555-0.608475-107.090564-0.031702-214.180106-0.010226-321.269648-0.047042-12.515153-0.004091-23.819492 3.043397-32.304394 12.785132-10.61712 12.187906-13.053065 26.204305-6.584824 40.928376 6.57971 14.979732 18.930217 22.362221 35.1811 22.812185 11.150942 0.309862 22.316201 0.06954 33.474302 0.06954C424.896507 383.278574 469.031904 383.277551 513.166278 383.277551z"  horiz-adv-x="1025" />

    
    <glyph glyph-name="arrow-down" unicode="&#58907;" d="M834.332 576.575l-320.678-324.097-325.429 322.001c-14.29 14.291-37.513 14.24-51.863-0.11v-0.001c-14.352-14.351-14.402-37.571 3.556-51.856l343.491-343.491c5.186-4.634 11.312-9.959 14.619-10.842 13.486-5.426 30.055-2.71 43.676 8.144l348.29 348.29c10.738 14.412 10.794 37.739-3.561 52.093-14.351 14.35-37.679 14.293-52.101-0.127z"  horiz-adv-x="1024" />

    
    <glyph glyph-name="message1" unicode="&#59135;" d="M921.6 742.4 102.4 742.4c-56.5504 0-102.4-45.8496-102.4-102.4l0-512c0-56.5504 45.8496-102.4 102.4-102.4l819.2 0c56.5504 0 102.4 45.8496 102.4 102.4L1024 640C1024 696.5504 978.1504 742.4 921.6 742.4zM672.64 371.2256 972.8 599.9872l0-434.9696L672.64 371.2256zM102.4 691.2l819.2 0c20.9408 0 38.9376-12.672 46.848-30.72L511.9744 303.1808 55.5008 660.4544C63.4368 678.528 81.4336 691.2 102.4 691.2zM51.2 599.9616l300.1088-228.736L51.2 165.0176 51.2 599.9616zM921.6 76.8 102.4 76.8c-20.6592 0-38.3744 12.3392-46.464 29.9776l335.0528 231.2448 104.6528-87.68c4.736-3.8912 10.5472-5.888 16.3328-5.888 5.8368 0 11.6224 1.9968 16.384 5.888l104.6272 87.68 335.0784-231.2448C959.9488 89.1392 942.2336 76.8 921.6 76.8z"  horiz-adv-x="1024" />

    
    <glyph glyph-name="wode" unicode="&#58881;" d="M1008.708 8.564l-8.501 26.789c-24.461 77.969-243.816 186.008-276.077 199.615-39.02 16.463-55.703 26.977-62.065 31.65-2.398 10.559-4.158 22.953-5.149 36.15 13.669 8.59 27.638 20.729 39.132 39.018 3.671 5.832 7.03 10.951 10.176 15.744 10.293 15.699 19.44 29.635 29.334 52.439 11.623 6.737 21.691 16.763 28.525 28.886 23.462 41.695 40.445 113.723 28.064 147.684-4.139 11.389-11.485 20.65-21.217 27.246C767.617 731.33 713.004 811.19 609.383 850.933c-19.319 8.255-51.568 20.568-95.47 32.348-24.424 6.558-41.474 8.976-59.575 10.568a41.66 41.66 0 0 1-11.3-0.579c-20.207-3.906-38.394-18.727-46.305-37.739-0.155-0.372-0.311-0.742-0.456-1.128-33.203-7.619-63.808-26.423-74.157-61.698a39.676 39.676 0 0 1-1.771-7.406c-43.697-46.396-64.571-99.646-66.784-169.724-11.015-6.648-19.271-16.481-23.759-28.849-12.439-33.935 4.524-105.934 28.016-147.684 7.373-13.066 18.511-23.588 31.27-30.202 9.039-19.79 18.32-32.787 27.359-45.443 4.352-6.08 8.954-12.506 13.892-20.332 12.303-19.561 26.031-32.246 39.213-40.977-1.12-9.166-2.546-19.225-3.882-28.646l-1.991-14.277c-5.958-6.885-26.602-19.074-44.209-26.004-2.677-1.012-268.809-105.363-296.361-203.703-4.651-16.586-19.37-63.307-19.397-63.371A37.193 37.193 0 0 1 2-45.068c0-52.904 38.661-79.73 114.899-79.73h788.655c34.379 0 114.899 0 114.899 77.186 0.001 19.438-2.252 26.489-11.745 56.176z m-103.153-56.953H116.899c-19.968 0-29.717 1.418-34.456 2.695 4.766 15.254 13.374 42.982 16.782 55.127 8.61 30.754 134.816 108.453 243.913 150.57l42.921 20.182c25.227 14.771 51.488 36.775 55.362 65.742l2.388 17.117c3.04 21.463 6.188 43.652 6.631 59.66 0.452 15.752-9.136 30.164-24.134 36.264-11.872 4.832-19.947 10.064-28.652 23.898-5.835 9.262-11.233 16.843-16.355 24.017-10.136 14.187-17.455 24.438-25.233 45.376-4.764 12.836-16.145 22.08-29.68 24.589-12.688 23.198-20.273 55.768-22.058 73.601 6.288 1.813 12.075 5.123 16.782 9.731 7.682 7.499 11.813 17.75 11.408 28.308-3.312 87.117 24.145 128.737 66.398 164.425 8.185 6.912 12.841 16.558 13.449 26.573 6.431 1.613 14.345 2.641 22.4 2.641 14.077-0.55 27.612 6.005 35.256 17.731a37.397 37.397 0 0 1 5.535 13.916c5.134-1.046 10.813-2.389 17.292-4.123 39.346-10.568 67.791-21.407 86.106-29.194 82.01-31.481 116.86-90.71 113-192.036-0.394-10.238 3.774-20.222 11.044-27.663 4.023-4.121 8.98-7.284 14.4-9.327-1.53-18.638-9.252-51.952-22.315-75.413-12.399-3.115-22.563-11.919-27.07-23.738-9.6-25.166-16.656-35.927-28.362-53.771-3.378-5.149-6.989-10.665-10.955-16.958-6.786-10.813-15.384-16.006-27.938-21.322-14.44-6.119-23.74-19.99-23.633-35.27 0.123-17.896 1.626-52.211 10.135-83.703 3.376-17.074 18.495-34.656 66.163-58.459L511.63 110.318l-75.296 41.893-32.309-26.082 97.381-54.184a20.285 20.285 0 0 1 19.025-0.328l177.742 90.861c88.499-38.547 215.691-122.189 226.577-149.344l8.624-27.189c7.721-24.148 8.185-25.594 8.215-32.225-8.895-2.109-27.441-2.109-36.034-2.109z"  horiz-adv-x="1024" />

    
    <glyph glyph-name="write" unicode="&#58894;" d="M889.002667 648.704c6.997333 6.826667 7.168 18.090667 0.170666 25.088L720.042667 846.336c-6.826667 6.997333-18.090667 7.168-25.088 0.170667l-109.226667-107.008 194.048-197.802667 109.226667 107.008zM278.528 74.752c6.826667-6.997333 1.877333-2.218667 12.458667-12.629333l463.530666 454.656-194.048 197.802666L96.938667 259.925333c12.458667-12.629333 5.632-5.632 12.458666-12.629333l169.130667-172.544zM70.314667 236.373333L49.493333 19.456l217.258667 16.554667L70.314667 236.373333zM49.493333-35.157333h921.6v-48.64H49.493333v48.64z"  horiz-adv-x="1024" />

    
    <glyph glyph-name="add" unicode="&#58896;" d="M469.3504 341.3504H256a42.6496 42.6496 0 1 0 0 85.2992h213.3504V640a42.6496 42.6496 0 1 0 85.2992 0v-213.3504H768a42.6496 42.6496 0 1 0 0-85.2992h-213.3504V128a42.6496 42.6496 0 1 0-85.2992 0v213.3504zM512-128c282.7776 0 512 229.2224 512 512S794.7776 896 512 896 0 666.7776 0 384s229.2224-512 512-512z"  horiz-adv-x="1024" />

    
    <glyph glyph-name="icon07" unicode="&#58882;" d="M369.804 13.112c-5.822 0-11.677 1.976-16.479 6.021-10.814 9.108-12.196 25.259-3.088 36.072l271.177 321.947-258.662 309.326c-9.070 10.846-7.63 26.991 3.216 36.061 10.846 9.069 26.991 7.629 36.060-3.217l272.445-325.808c7.971-9.532 7.946-23.411-0.058-32.914l-285.017-338.38c-5.064-6.012-12.304-9.107-19.593-9.108z"  horiz-adv-x="1024" />

    
    <glyph glyph-name="tel1" unicode="&#58947;" d="M735.845 817.803c-39.507-2.425-61.696-27.709-65.361-32.231-32.203-37.928-55.196-79.364-68.342-123.157-9.815-32.698-10.751-56.443-10.817-62.547-0.51-3.781-0.769-7.619-0.769-11.429 0-40.227 28.531-68.654 30.709-70.765l43.689-42.318 0.976-0.731c6.238-4.668 6.959-8.839 6.959-11.569 0-1.349-0.22-2.409-0.341-2.899-19.124-42.691-43.395-81.925-72.148-116.621-23.709-28.609-50.566-54.294-79.828-76.341-49.207-37.074-92.533-54.069-105.075-57.488-8.027-2.189-13.567 0.856-16.358 3.114-19.171 53.353-65.109 62.802-67.108 63.189l-1.428 0.275-1.452 0.058c-123.255 4.837-215.461-52.901-221.343-56.675-24.044-14.978-36.749-41.166-36.749-75.745 0-25.546 7.074-47.334 7.375-48.249l0.269-0.819 0.341-0.791c41.635-96.368 120.245-131.103 123.571-132.534l0.314-0.132c105.271-43.107 230.984 17.327 239.919 21.748 64.236 29.424 127.955 70.799 189.386 122.983 48.986 41.609 96.659 90.165 141.697 144.318 76.642 92.152 118.633 167.716 120.399 170.915 38.961 70.87 44.778 132.451 44.778 162.851 0 9.287-0.575 14.735-0.64 15.325l-0.021 0.186c-11.343 93.807-63.645 144.059-70.779 150.518-46.155 47.367-90.505 70.099-131.822 67.562zM840.634 723.029l0.515-0.54 0.628-0.544c0.123-0.107 12.346-10.988 25.617-32.055 12.131-19.255 27.686-51.286 32.955-94.596 0.056-0.582 0.406-4.507 0.406-11.083 0-21.514-3.9-78.647-40.019-144.349-0.412-0.744-41.96-75.519-116.292-164.893-43.628-52.458-89.736-99.431-137.040-139.613-58.839-49.979-119.667-89.5-180.794-117.467l-0.612-0.292c-1.165-0.583-117.423-57.867-208.331-20.794-3.062 1.369-67.935 31.256-103.017 111.548-1.004 3.366-5.242 18.597-5.242 35.57 0 20.978 6.307 35.525 18.749 43.237l0.315 0.199c0.848 0.548 85.528 54.478 197.291 50.728 5.103-1.486 28.393-9.899 38.332-41.35l1.039-3.291 2.122-2.722c8.101-10.391 29.5-25.88 58.327-18.021 18.055 4.922 65.966 24.604 118.066 63.859 31.64 23.839 60.668 51.596 86.279 82.499 31.176 37.62 57.431 80.13 78.036 126.348l0.267 0.627c0.706 1.748 3.010 8.142 3.010 17.017 0 16.077-7.543 30.755-21.278 41.47l-42.105 40.783c-0.189 0.18-18.951 18.797-18.951 43.129 0 2.384 0.182 4.787 0.546 7.143l0.259 1.591-0.040 1.92c0 2.216 0.259 22.499 9.204 52.297 11.635 38.763 32.157 75.617 60.994 109.537l0.677 0.844c0.124 0.162 12.957 16.238 37.651 17.754 29.37 1.804 64.793-17.732 102.438-56.494z"  horiz-adv-x="1024" />

    
    <glyph glyph-name="text" unicode="&#58899;" d="M988.16 684.48v-601.28c0.033-0.896 0.052-1.949 0.052-3.006 0-23.716-9.416-45.233-24.714-61.017-14.332-15.921-35.042-25.901-58.083-25.901-0.272 0-0.544 0.001-0.816 0.004l-767.959-0c-0.23-0.002-0.502-0.004-0.775-0.004-23.041 0-43.751 9.98-58.043 25.853-15.338 15.831-24.754 37.348-24.754 61.064 0 1.057 0.019 2.11 0.056 3.158l-0.004 601.128c-0.033 0.896-0.052 1.949-0.052 3.006 0 23.716 9.416 45.233 24.714 61.017 14.386 15.923 35.14 25.9 58.225 25.9 0.223 0 0.445-0.001 0.667-0.003l767.966 0c0.188 0.002 0.411 0.003 0.633 0.003 23.085 0 43.839-9.977 58.186-25.854 15.336-15.829 24.752-37.346 24.752-61.062 0-1.057-0.019-2.11-0.056-3.158zM921.28 83.2v460.8c0 0.021 0 0.045 0 0.070 0 4.843-1.956 9.229-5.121 12.411-2.878 3.151-7.005 5.121-11.592 5.121-0.087 0-0.174-0.001-0.26-0.002l-767.987 0c-0.074 0.001-0.16 0.002-0.247 0.002-4.587 0-8.714-1.97-11.582-5.11-3.175-3.194-5.131-7.58-5.131-12.422 0-0.025 0-0.049 0-0.074l-0-460.796c-0-0.021-0-0.045-0-0.070 0-4.843 1.956-9.229 5.121-12.411 2.878-3.151 7.005-5.121 11.592-5.121 0.087 0 0.174 0.001 0.26 0.002l767.987-0c0.074-0.001 0.16-0.002 0.247-0.002 4.587 0 8.714 1.97 11.582 5.11 3.175 3.194 5.131 7.58 5.131 12.422 0 0.025-0 0.049-0 0.074zM252.48 472.32v-35.52c0-0.021 0-0.045 0-0.070 0-4.843-1.956-9.229-5.121-12.411-2.878-3.151-7.005-5.121-11.592-5.121-0.087 0-0.174 0.001-0.26 0.002l-31.987-0c-4.662 0.11-8.806 2.238-11.606 5.541-3.078 3.081-5.034 7.467-5.034 12.31 0 0.025 0 0.049 0 0.074l-0 35.196c-0 0.021-0 0.045-0 0.070 0 4.843 1.956 9.229 5.121 12.411 2.878 3.151 7.005 5.121 11.592 5.121 0.087 0 0.174-0.001 0.26-0.002l31.987 0c0.074 0.001 0.16 0.002 0.247 0.002 4.587 0 8.714-1.97 11.582-5.11 2.986-3.157 4.815-7.413 4.815-12.097 0-0.139-0.002-0.278-0.005-0.416zM252.48 330.88v-35.52c0-0.021 0-0.045 0-0.070 0-4.843-1.956-9.229-5.121-12.411-2.878-3.151-7.005-5.121-11.592-5.121-0.087 0-0.174 0.001-0.26 0.002l-31.987-0c-4.572 0.021-8.679 1.996-11.531 5.132-3.153 3.169-5.109 7.555-5.109 12.398 0 0.025 0 0.049 0 0.074l-0 35.516c-0 0.021-0 0.045-0 0.070 0 4.843 1.956 9.229 5.121 12.411 2.878 3.151 7.005 5.121 11.592 5.121 0.087 0 0.174-0.001 0.26-0.002l31.987 0c0.074 0.001 0.16 0.002 0.247 0.002 4.587 0 8.714-1.97 11.582-5.11 2.986-3.157 4.815-7.413 4.815-12.097 0-0.139-0.002-0.278-0.005-0.416zM252.48 189.44v-35.52c0-0.021 0-0.045 0-0.070 0-4.843-1.956-9.229-5.121-12.411-2.878-3.151-7.005-5.121-11.592-5.121-0.087 0-0.174 0.001-0.26 0.002l-31.987-0c-4.572 0.021-8.679 1.996-11.531 5.132-3.153 3.169-5.109 7.555-5.109 12.398 0 0.025 0 0.049 0 0.074l-0 35.196c-0 0.021-0 0.045-0 0.070 0 4.843 1.956 9.229 5.121 12.411 2.878 3.151 7.005 5.121 11.592 5.121 0.087 0 0.174-0.001 0.26-0.002l31.987 0c0.074 0.001 0.16 0.002 0.247 0.002 4.587 0 8.714-1.97 11.582-5.11 2.986-3.157 4.815-7.413 4.815-12.097 0-0.139-0.002-0.278-0.005-0.416zM854.080 472.64v-35.52c0-0.021 0-0.045 0-0.070 0-4.843-1.956-9.229-5.121-12.411-2.878-3.151-7.005-5.121-11.592-5.121-0.087 0-0.174 0.001-0.26 0.002l-500.787-0c-0.074-0.001-0.16-0.002-0.247-0.002-4.587 0-8.714 1.97-11.582 5.11-2.794 3.112-4.496 7.232-4.496 11.749 0 0.149 0.002 0.297 0.006 0.445l-0 35.498c-0.003 0.118-0.004 0.256-0.004 0.396 0 4.683 1.829 8.939 4.812 12.093 2.871 3.144 6.998 5.114 11.585 5.114 0.087 0 0.174-0.001 0.26-0.002l501.107 0c0.074 0.001 0.16 0.002 0.247 0.002 4.587 0 8.714-1.97 11.582-5.11 2.986-3.157 4.815-7.413 4.815-12.097 0-0.139-0.002-0.278-0.005-0.416zM854.080 331.2v-35.52c0-0.021 0-0.045 0-0.070 0-4.843-1.956-9.229-5.121-12.411-2.878-3.151-7.005-5.121-11.592-5.121-0.087 0-0.174 0.001-0.26 0.002l-500.787-0c-0.074-0.001-0.16-0.002-0.247-0.002-4.587 0-8.714 1.97-11.582 5.11-2.794 3.112-4.496 7.232-4.496 11.749 0 0.149 0.002 0.297 0.006 0.445l-0 35.498c-0.003 0.118-0.004 0.256-0.004 0.396 0 4.683 1.829 8.939 4.812 12.093 2.871 3.144 6.998 5.114 11.585 5.114 0.087 0 0.174-0.001 0.26-0.002l501.107 0c0.074 0.001 0.16 0.002 0.247 0.002 4.587 0 8.714-1.97 11.582-5.11 2.986-3.157 4.815-7.413 4.815-12.097 0-0.139-0.002-0.278-0.005-0.416zM854.080 189.76v-35.52c0-0.021 0-0.045 0-0.070 0-4.843-1.956-9.229-5.121-12.411-2.878-3.151-7.005-5.121-11.592-5.121-0.087 0-0.174 0.001-0.26 0.002l-500.787-0c-0.074-0.001-0.16-0.002-0.247-0.002-4.587 0-8.714 1.97-11.582 5.11-2.794 3.112-4.496 7.232-4.496 11.749 0 0.149 0.002 0.297 0.006 0.445l-0 35.178c-0.003 0.118-0.004 0.256-0.004 0.396 0 4.683 1.829 8.939 4.812 12.093 2.871 3.144 6.998 5.114 11.585 5.114 0.087 0 0.174-0.001 0.26-0.002l501.107 0c0.074 0.001 0.16 0.002 0.247 0.002 4.587 0 8.714-1.97 11.582-5.11 2.986-3.157 4.815-7.413 4.815-12.097 0-0.139-0.002-0.278-0.005-0.416z"  horiz-adv-x="1024" />

    
    <glyph glyph-name="jiantou-copy-copy" unicode="&#58909;" d="M512.138 622.76l431.297-431.297-34.419-34.419-431.297 431.297 34.419 34.419zM81.733 191.461l431.298 431.298 34.419-34.419-431.298-431.298-34.419 34.419z"  horiz-adv-x="1024" />

    
    <glyph glyph-name="icon-f1" unicode="&#59237;" d="M972.791 390.042c-8.474-7.477-22.431-7.477-30.904 0l-198.884 170.473c-1.495 0.997-2.493 1.993-3.988 3.489l-85.236 73.273c-1.495 0.997-2.492 1.993-3.988 3.489l-138.571 118.632-429.172-369.356c-8.474-7.477-22.431-7.477-30.904 0-8.474 7.477-8.474 18.941 0 26.419l442.629 379.823c0.498 0.997 0.997 1.993 1.993 2.493 4.486 3.988 9.969 5.483 15.95 5.483 5.981 0 11.464-1.495 15.95-5.483 0.997-0.997 1.495-1.993 1.993-2.493l115.642-99.193v49.845c0 10.467 9.969 18.941 22.431 18.941h89.224c5.981 0 11.464-1.993 15.95-5.483 3.988-3.489 6.48-7.976 6.48-13.459l0-164.489 193.899-165.986c7.978-7.476 7.978-18.941-0.496-26.418zM734.529 727.995h-44.362v-68.787l44.362-38.381-0 107.168zM200.682 422.939c12.462 0 22.431-8.474 22.431-18.941v-362.378c0-20.935 19.938-38.381 44.362-38.381h133.586v247.734c0 10.467 9.969 18.941 22.431 18.941h177.949c12.462 0 22.431-8.474 22.431-18.941v-247.733h133.586c24.424 0 44.362 16.947 44.362 38.381l0 362.377c0 10.467 9.969 18.941 22.431 18.941s22.431-8.474 22.431-18.941v-362.378c0-42.369-39.876-76.264-89.224-76.264h-489.984c-49.347 0-89.224 34.393-89.224 76.264l-0 362.378c0 10.468 9.97 18.941 22.431 18.941zM579.010 3.239v228.792h-133.586v-228.792h133.586z"  horiz-adv-x="1024" />

    
    <glyph glyph-name="jiahao" unicode="&#58920;" d="M184.88 35.427c-10.724 0-21.451 10.724-21.451 21.451v654.246c0 10.724 10.724 21.451 21.451 21.451h659.606c10.724 0 21.451-10.724 21.451-21.451v-659.606c0-10.724-10.724-21.451-21.451-21.451h-659.606zM844.483 732.573c10.724 0 16.090-5.363 16.090-16.090v-659.606c0-10.724-5.363-16.090-16.090-16.090h-664.97c-10.724 0-16.090 5.363-16.090 16.090v659.606c0 10.724 5.363 16.090 16.090 16.090h664.97M844.483 786.198h-664.97c-37.537 0-69.713-32.174-69.713-69.713v-659.606c0-37.537 32.174-69.713 69.713-69.713h659.606c37.537 0 69.713 32.174 69.713 69.713v659.606c5.363 37.537-26.815 69.713-64.353 69.713zM485.185 518.065h53.627v-268.132h-53.627zM377.935 410.815h268.132v-53.627h-268.132z"  horiz-adv-x="1024" />

    
    <glyph glyph-name="jianhao" unicode="&#58921;" d="M163.072 12.189c-11.439 0-22.881 11.439-22.881 22.881v697.862c0 11.439 11.439 22.881 22.881 22.881h703.58c11.439 0 22.881-11.439 22.881-22.881v-703.58c0-11.439-11.439-22.881-22.881-22.881h-703.58zM866.649 755.811c11.439 0 17.163-5.721 17.163-17.163v-703.58c0-11.439-5.721-17.163-17.163-17.163h-709.301c-11.439 0-17.163 5.721-17.163 17.163v703.58c0 11.439 5.721 17.163 17.163 17.163h709.301M866.649 813.011h-709.301c-40.039 0-74.361-34.319-74.361-74.361v-703.58c0-40.039 34.319-74.361 74.361-74.361h703.58c40.039 0 74.361 34.319 74.361 74.361v703.58c5.721 40.039-28.603 74.361-68.643 74.361zM368.997 412.603h286.007v-57.202h-286.007z"  horiz-adv-x="1024" />

    
    <glyph glyph-name="xiaoxi" unicode="&#58892;" d="M539.243464-128h-7.411339a123.522316 123.522316 0 0 0-116.110977 104.993969 21.822276 21.822276 0 0 0 41.174106 7.411339 82.348211 82.348211 0 0 1 75.348613-68.760756c61.761158-4.117411 76.995577 66.29031 77.407318 69.584238a21.822276 21.822276 0 0 0 41.174105-8.646562 123.522316 123.522316 0 0 0-115.699236-104.582228zM57.506432 72.517893a6.176116 6.176116 0 0 1 0-2.882187 29.233615 29.233615 0 0 1 19.351829-4.529152h874.126257a28.410133 28.410133 0 0 1 16.057901 2.882187v49.408927c0 4.529152 0 33.762766-66.29031 93.465219-92.641737 86.877362-149.873743 304.68838-149.873743 457.44431 0 123.522316-200.517893 140.81544-202.576598 141.227182h-76.583836s-200.929634-18.116606-200.929634-140.815441c0-133.815842-44.879775-363.979091-144.52111-456.620828C59.976878 150.748693 55.035986 120.691596 55.035986 113.691998v-41.174105z m20.587053-50.64415a65.878569 65.878569 0 0 0-52.291114 19.763571 48.997185 48.997185 0 0 0-11.940491 36.233213v30.880579c-2.470446 16.057901 0 58.878971 82.348211 135.051065S227.555487 522.962606 227.555487 668.718938c0 164.696421 232.633695 183.63651 242.51548 184.459992h9.058304V878.706876a17.293124 17.293124 0 0 0 17.293124 17.293124h22.234017a17.293124 17.293124 0 0 0 17.293124-17.293124V854.825895H549.12525c12.763973 0 247.044632-23.057499 247.044632-185.695215C796.169882 525.433052 849.284478 319.562525 930.397465 244.213912s82.348211-118.993164 79.054282-136.286288v-28.410133a46.114998 46.114998 0 0 0-7.82308-35.821472 59.702453 59.702453 0 0 0-51.05589-20.587052z"  horiz-adv-x="1024" />

    
    <glyph glyph-name="yingyong" unicode="&#58948;" d="M512 17.345l-383.12 175.74c1.297-0.814-33.918 15.066-58.955 29.292 0-21.248 5.372-60.215 25.307-70.726l375.095-167.776c33.145-15.551 47.438-15.551 83.37 0l375.095 167.776c18.497 8.594 25.282 48.97 25.282 70.726-24.108-12-58.27-29.143-58.93-29.292l-383.145-175.74zM95.232 503.15l375.095-167.774c33.145-15.55 47.438-15.55 83.37 0L928.792 503.15c27.624 12.822 28.55 67.306 0 82.857l-375.095 197.08c-29.482 17.381-50.225 16.485-83.37 0L95.232 586.007c-28.552-18.286-29.48-67.276 0-82.857zM512 749.616a3.48 3.48 0 0 0 1.044-0.558l382.1-204.475L512 383.942l-383.118 160.64 383.118 205.033zM513.042 749.057l-1.044 0.558c2.238-2.574 2.195-1.447 1.044-0.558zM95.232 327.423l375.095-167.786c33.145-15.55 47.438-15.55 83.37 0l375.095 167.786c18.497 8.583 25.282 48.954 25.282 70.69-24.108-12.01-58.27-29.119-58.93-29.267L511.999 193.085l-383.118 175.76c1.296-0.812-33.919 15.04-58.956 29.267 0-21.252 5.372-60.186 25.307-70.689z"  horiz-adv-x="1024" />

    
    <glyph glyph-name="loudou-" unicode="&#58932;" d="M551.12 54.33a37.59 37.59 0 0 0-26.67 11.2l-73.55 75.3a54.89 54.89 0 0 0-15.61 38.56v166a26.2 26.2 0 0 1-3.71 13.44L259.28 641a48.23 48.23 0 0 0-0.91 48.57 47.28 47.28 0 0 0 41.08 24.15h425.1a47.28 47.28 0 0 0 41.08-24.15 48.23 48.23 0 0 0-0.91-48.57L592.48 359a26 26 0 0 1-3.78-13.51v-253.3a37.83 37.83 0 0 0-37.58-37.86z m-240.4 605.59l166.71-273A79.47 79.47 0 0 0 489 345.4v-166l46-47.46V345.4a79.32 79.32 0 0 0 11.64 41.6l166.64 272.92z m413.83 0z"  horiz-adv-x="1024" />

    
    <glyph glyph-name="home" unicode="&#58906;" d="M927.744-70.65599999999995H135.168c-16.384 0-32.768 8.192-43.008 20.48-10.24 14.336-14.336 30.72-10.24 47.104 40.96 208.896 210.944 364.544 415.744 380.928 8.192 2.048 14.336 2.048 24.576 2.048v-20.48c-8.192 0-14.336 0-22.528-2.048-196.608-14.336-360.448-163.84-399.36-364.544-2.048-10.24 0-22.528 8.192-30.72 6.144-8.192 16.384-12.288 26.624-12.288h792.576c10.24 0 20.48 4.096 26.624 12.288 6.144 8.192 10.24 18.432 8.192 30.72-24.576 131.072-104.448 243.712-217.088 307.2-12.288 8.192-26.624 14.336-38.912 20.48l8.192 18.432c14.336-6.144 28.672-14.336 40.96-20.48 118.784-67.584 200.704-184.32 227.328-321.536 4.096-16.384 0-32.768-12.288-47.104-10.24-12.288-26.624-20.48-43.008-20.48z m-399.36 430.08h-4.096v20.48h6.144l-2.048-20.48zM536.576 359.424c-129.024 0-235.52 106.496-235.52 235.52S407.552 830.4639999999999 536.576 830.4639999999999s235.52-106.496 235.52-235.52-106.496-235.52-235.52-235.52z m0 450.56c-118.784 0-215.04-96.256-215.04-215.04s96.256-215.04 215.04-215.04 215.04 96.256 215.04 215.04S655.36 809.984 536.576 809.984z"  horiz-adv-x="1024" />

    
    <glyph glyph-name="yonghuming" unicode="&#59144;" d="M357.353238 616.649504a278.594155 278.594155 0 0 1 93.216025-208.303966 216.636124 216.636124 0 0 1 62.144016-9.063702c119.836775 0 217.33047 97.493695 217.330471 217.330471S632.550054 834.004772 512.713279 834.004772a216.636124 216.636124 0 0 1-62.181213-9.051303 278.594155 278.594155 0 0 1-93.178828-208.303965zM511.969336 834.004772c119.836775 0 217.33047-97.493695 217.330471-217.33047s-97.493695-217.318071-217.330471-217.318072-217.33047 97.481296-217.33047 217.293274 97.493695 217.355269 217.33047 217.355268m0 61.995228C357.712811 895.975202 232.668436 770.930827 232.668436 616.649504S357.712811 337.373402 511.969336 337.373402s279.3009 125.044374 279.300901 279.276102S666.275458 895.975202 511.969336 895.975202zM918.075275 25.215031a424.208546 424.208546 0 0 1-16.961894 46.397228q-5.405984 12.399046-11.580708 24.512913a426.675956 426.675956 0 0 1-125.453543 148.007407 420.935198 420.935198 0 0 1-252.618154 83.321586 430.246881 430.246881 0 0 1-48.356278-2.715391c-166.14721-67.921972-283.181801-231.167805-283.181802-421.741135h756.007005a425.113676 425.113676 0 0 1-17.854626 122.217392zM238.694372 236.358377a30.997614 30.997614 0 0 0-18.598568 55.795705 482.335271 482.335271 0 0 0 35.275285 24.16574 31.001334 31.001334 0 1 0 32.73348-52.658746c-10.588785-6.583893-20.954387-13.63895-30.799229-21.078378a30.836426 30.836426 0 0 0-18.610968-6.224321zM56.527595-127.999975a30.997614 30.997614 0 0 0-30.997614 30.997614A486.042586 486.042586 0 0 0 146.011507 223.450971a30.997614 30.997614 0 1 0 46.620411-40.854855A424.047358 424.047358 0 0 1 87.537608-97.01476a30.997614 30.997614 0 0 0-31.010013-30.985215zM967.411078-127.999975a30.997614 30.997614 0 0 0-30.997614 30.997614 422.113107 422.113107 0 0 1-34.804121 168.627019q-5.405984 12.399046-11.580709 24.512913a426.688355 426.688355 0 0 1-125.453543 147.995008 425.287263 425.287263 0 0 1-407.035867 54.357416 30.997614 30.997614 0 1 0-22.553864 57.717557 487.146101 487.146101 0 0 0 466.514089-62.305204 487.877644 487.877644 0 0 0 143.754534-169.494953q7.067456-13.800138 13.279378-28.096237a484.319118 484.319118 0 0 0 39.912528-193.276322 30.997614 30.997614 0 0 0-31.034811-31.034811z"  horiz-adv-x="1024" />

    
    <glyph glyph-name="wendang" unicode="&#59158;" d="M804.1-16.6v567l-232.4 1c-13.3 0.1-24.1 10.9-24.1 24.2v232H291v-824.1h513.1zM596.1 753.2v-153.4l171.3-0.7zM194.1 531.5c-13.4 0-24.2 10.9-24.2 24.2V807.6c0 13.4 10.8 24.2 24.2 24.2h377.7c13.4 0 24.2-10.9 24.2-24.2s-10.8-24.2-24.2-24.2H218.3v-227.6c0-13.4-10.8-24.3-24.2-24.3zM194.1 380.8c-13.4 0-24.2 10.9-24.2 24.2v58.8c0 13.4 10.8 24.2 24.2 24.2s24.2-10.9 24.2-24.2V405c0-13.4-10.8-24.2-24.2-24.2zM852.3 577.7v0.5 0.6c0 0.2 0 0.5-0.1 0.7 0 0.2 0 0.3-0.1 0.5 0 0.3-0.1 0.5-0.1 0.8 0 0.1 0 0.3-0.1 0.4-0.1 0.3-0.1 0.6-0.2 0.8 0 0.1-0.1 0.3-0.1 0.4-0.1 0.3-0.1 0.6-0.2 0.8 0 0.1-0.1 0.3-0.1 0.4-0.1 0.3-0.2 0.5-0.3 0.8 0 0.1-0.1 0.3-0.1 0.4-0.1 0.2-0.2 0.5-0.3 0.7-0.1 0.2-0.1 0.3-0.2 0.5l-0.3 0.6-0.3 0.6c0 0.1-0.1 0.2-0.1 0.3-0.3 0.6-0.6 1.1-0.9 1.7 0 0.1-0.1 0.1-0.1 0.2-0.2 0.3-0.3 0.5-0.5 0.7-0.1 0.1-0.1 0.2-0.2 0.3-0.2 0.2-0.3 0.4-0.5 0.7-0.1 0.1-0.2 0.2-0.3 0.4-0.2 0.2-0.3 0.4-0.5 0.6-0.1 0.1-0.2 0.3-0.4 0.4-0.1 0.2-0.3 0.3-0.4 0.5l-0.6 0.6-0.3 0.3c-0.3 0.3-0.6 0.6-1 0.9L587.8 825.6c-7.1 6.4-17.3 8-26.1 4.1-8.7-3.9-14.4-12.6-14.4-22.1v-231.9c0-13.3 10.8-24.2 24.1-24.2l232.4-1v-567H218.1V317.9c0 13.4-10.8 24.2-24.2 24.2s-24.2-10.9-24.2-24.2v-358.7c0-13.4 10.8-24.2 24.2-24.2h634.2c13.4 0 24.2 10.9 24.2 24.2V576.9v0.8z m-256.5 22.1V753.2l171.4-154.1-171.4 0.7zM540.5 423.5h-220c-13.4 0-24.2 10.9-24.2 24.2s10.8 24.2 24.2 24.2h220.1c13.4 0 24.2-10.9 24.2-24.2s-10.9-24.2-24.3-24.2zM653.6 293.7H320.5c-13.4 0-24.2 10.9-24.2 24.2s10.8 24.2 24.2 24.2h333.1c13.4 0 24.2-10.9 24.2-24.2s-10.8-24.2-24.2-24.2zM702 164H320.5c-13.4 0-24.2 10.9-24.2 24.2 0 13.4 10.8 24.2 24.2 24.2H702c13.4 0 24.2-10.9 24.2-24.2 0.1-13.4-10.8-24.2-24.2-24.2z"  horiz-adv-x="1024" />

    
    <glyph glyph-name="gongneng" unicode="&#59161;" d="M224.6 710.1H415v-295.8H224.6zM591.793 562.214l156.481 156.48 156.482-156.48-156.482-156.482zM224.6 292.3H415v-295.8H224.6zM653 292.3h190.4v-295.8H653zM414.9 388H119.2c-14.6 0-26.3 11.8-26.3 26.3V710.1c0 14.5 11.8 26.3 26.3 26.3H415c14.6 0 26.3-11.8 26.3-26.3v-295.8c0-14.5-11.8-26.3-26.4-26.3z m-269.4 52.7h243.1V683.8H145.5v-243.1zM695.5 326.7c-7 0-13.7 2.8-18.6 7.7L467.7 543.6c-10.3 10.3-10.3 27 0 37.3L676.9 790c9.9 9.9 27.4 9.9 37.3 0l209.1-209.2c10.3-10.3 10.3-27 0-37.3L714.1 334.4c-4.9-4.9-11.6-7.7-18.6-7.7zM523.6 562.2l171.9-171.9 171.9 171.9-171.9 171.9-171.9-171.9zM414.9-29.8H119.2c-14.6 0-26.3 11.8-26.3 26.3v36.9c0 14.5 11.8 26.3 26.3 26.3s26.3-11.8 26.3-26.3v-10.6h243.1V266H145.5v-41.5c0-14.5-11.8-26.3-26.3-26.3S92.8 210 92.8 224.5v67.8c0 14.5 11.8 26.3 26.3 26.3h295.8c14.6 0 26.3-11.8 26.3-26.3v-295.8c0.1-14.5-11.7-26.3-26.3-26.3zM119.2 87.6c-14.6 0-26.3 11.8-26.3 26.3v30.5c0 14.5 11.8 26.3 26.3 26.3s26.3-11.8 26.3-26.3V114c0-14.6-11.8-26.4-26.3-26.4zM843.4-29.8H547.6c-14.6 0-26.3 11.8-26.3 26.3V292.3c0 14.5 11.8 26.3 26.3 26.3h295.8c14.6 0 26.3-11.8 26.3-26.3v-295.8c0-14.5-11.8-26.3-26.3-26.3z m-269.5 52.7H817V266H573.9v-243.1z"  horiz-adv-x="1024" />

    
    <glyph glyph-name="zhuye" unicode="&#59167;" d="M804 503.3v-459l-474.6-16.8V488.6M860.6 437.1L567.5 698.4 329.4 488.6M220.1 288.4c-14.6 0-26.4 11.8-26.4 26.4V471.5c0 14.6 11.8 26.4 26.4 26.4s26.4-11.8 26.4-26.4v-156.8c-0.1-14.5-11.9-26.3-26.4-26.3zM220.1 157.7c-14.6 0-26.4 11.8-26.4 26.4v50.5c0 14.6 11.8 26.4 26.4 26.4s26.4-11.8 26.4-26.4V184c-0.1-14.5-11.9-26.3-26.4-26.3zM804-1.5H220.1c-14.6 0-26.4 11.8-26.4 26.4v71.3c0 14.6 11.8 26.4 26.4 26.4s26.4-11.8 26.4-26.4v-45h531.2V471.5c0 14.6 11.8 26.4 26.4 26.4s26.4-11.8 26.4-26.4v-446.7c-0.1-14.5-12-26.3-26.5-26.3zM932.6 342.9c-6.2 0-12.5 2.2-17.5 6.7L510.9 709.9 106.7 349.6c-10.9-9.7-27.5-8.7-37.2 2.1-9.7 10.9-8.7 27.5 2.1 37.2l421.7 375.9c10 8.9 25.1 8.9 35.1 0l421.7-375.9c10.9-9.7 11.8-26.3 2.1-37.2-5.1-5.8-12.4-8.8-19.6-8.8z"  horiz-adv-x="1024" />

    
    <glyph glyph-name="acontacts" unicode="&#58883;" d="M512 853.333333a469.333333 469.333333 0 1 1 469.333333-469.333333A469.333333 469.333333 0 0 1 512 853.333333zM268.373333 402.773333H81.066667A429.226667 429.226667 0 0 0 170.666667 647.253333a593.706667 593.706667 0 0 1 123.733333-47.786666 843.946667 843.946667 0 0 1-26.026667-196.906667z m64 187.946667a863.36 863.36 0 0 1 161.706667-18.773333v-169.173334h-188.373333a798.293333 798.293333 0 0 0 25.813333 187.946667z m-64-225.493333a844.373333 844.373333 0 0 1 26.026667-196.48A557.44 557.44 0 0 1 170.666667 120.32a429.653333 429.653333 0 0 0-89.6 244.906667z m37.333334 0h187.52v-169.173334a868.906667 868.906667 0 0 1-161.706667-18.346666 799.36 799.36 0 0 0-25.813333 187.52z m225.066666 206.72a868.906667 868.906667 0 0 1 161.706667 18.346666 799.36 799.36 0 0 0 25.813333-187.52h-187.52v169.173334z m0-206.72h187.52a798.72 798.72 0 0 0-25.813333-187.946667 860.586667 860.586667 0 0 1-161.706667 18.773333v169.173334z m224.853334 0h187.306666A429.013333 429.013333 0 0 0 853.333333 120.746667a595.626667 595.626667 0 0 1-124.373333 47.786666 843.946667 843.946667 0 0 1 26.026667 196.906667z m0 37.546666a844.373333 844.373333 0 0 1-26.026667 196.48 557.44 557.44 0 0 1 123.733333 48.426667 429.653333 429.653333 0 0 0 89.6-244.906667z m73.173333 273.92a527.146667 527.146667 0 0 0-109.653333-42.666666 413.866667 413.866667 0 0 1-92.8 165.333333 432.213333 432.213333 0 0 0 202.666666-123.733333zM682.666667 626.346667a832 832 0 0 0-150.826667-16.853334V813.866667c61.866667-12.373333 116.693333-85.333333 150.826667-187.52z m-189.44 187.52v-204.373334a825.813333 825.813333 0 0 0-151.893334 17.066667c34.346667 103.04 89.173333 174.933333 150.826667 187.093333z m-95.573334-13.44a413.44 413.44 0 0 1-92.8-164.906667 566.613333 566.613333 0 0 0-110.08 41.173333 432 432 0 0 0 202.666667 123.733334z m-202.666666-709.12a530.133333 530.133333 0 0 0 109.653333 42.666666 413.866667 413.866667 0 0 1 92.8-165.333333 432 432 0 0 0-202.666667 123.733333zM341.333333 141.653333a832 832 0 0 0 150.826667 16.853334v-204.373334c-61.866667 12.373333-116.693333 85.333333-150.826667 187.52z m188.373334-187.52v204.373334a828.586667 828.586667 0 0 0 150.826666-17.28c-34.133333-103.04-89.173333-174.933333-150.826666-187.093334z m95.573333 13.44a413.44 413.44 0 0 1 92.8 164.906667 566.826667 566.826667 0 0 0 110.08-41.173333 432.213333 432.213333 0 0 0-202.666667-123.733334z"  horiz-adv-x="1024" />

    
    <glyph glyph-name="ahome" unicode="&#58884;" d="M972.8 553.386667L522.24 849.706667a18.773333 18.773333 0 0 1-21.333333 0L51.2 553.386667a18.773333 18.773333 0 0 1-8.533333-15.786667v-121.813333a18.773333 18.773333 0 0 1 29.226666-15.573334l27.093334 17.92v-484.266666a18.773333 18.773333 0 0 1 18.773333-18.773334h789.333333a18.773333 18.773333 0 0 1 18.773334 18.773334V418.133333l27.093333-17.92a18.773333 18.773333 0 0 1 28.373333 15.573334v122.026666a18.773333 18.773333 0 0 1-8.533333 15.786667z m-234.666667-600.746667h-169.813333V234.666667h168.96v-282.026667z m149.333334 0h-112.64V252.8a18.773333 18.773333 0 0 1-18.773334 18.773333h-206.506666a18.773333 18.773333 0 0 1-18.773334-18.773333v-300.16H136.533333v490.666667L512 691.626667l375.466667-248.533334v-490.666666z m56.32 498.133333L522.453333 729.6a18.773333 18.773333 0 0 1-21.333333 0L80.213333 450.773333v76.8L512 810.666667l431.786667-283.093334v-76.8z m-525.653334-10.453333h-149.333333a18.773333 18.773333 0 0 1-18.773333-18.773333v-149.333334a18.773333 18.773333 0 0 1 18.773333-18.773333h149.333333a18.773333 18.773333 0 0 1 18.773334 18.773333v149.333334a18.773333 18.773333 0 0 1-18.773334 18.773333z m-18.773333-149.333333h-112.64v111.786666h112.64v-112.64z"  horiz-adv-x="1024" />

    
    <glyph glyph-name="amessage" unicode="&#58885;" d="M887.68 119.04l-68.906667 114.346667V481.28a277.333333 277.333333 0 0 1-60.16 160 324.053333 324.053333 0 0 1-146.773333 106.666667h-1.493333a61.226667 61.226667 0 0 0-13.013334 4.906666V761.6a85.333333 85.333333 0 0 1-88.106666 82.133333 83.626667 83.626667 0 0 1-85.333334-82.133333v-7.253333c-7.253333-1.493333-10.24-2.986667-11.733333-2.986667h-1.493333a317.866667 317.866667 0 0 1-148.266667-106.666667 283.946667 283.946667 0 0 1-61.226667-160.426666v-250.88L128 110.08a50.346667 50.346667 0 0 1 0-49.92 70.186667 70.186667 0 0 1 51.2-30.72h181.973333c10.24-65.92 74.88-111.573333 149.333334-111.573333s136.533333 45.44 146.773333 111.573333h184.96A64 64 0 0 1 902.4 85.333333a50.56 50.56 0 0 1-14.72 33.706667zM512 796.8a39.04 39.04 0 0 0 41.173333-35.2 338.56 338.56 0 0 1-42.666666 4.48A320 320 0 0 1 469.333333 761.6a42.666667 42.666667 0 0 0 42.666667 35.2z m0-833.28c-48.426667 0-92.373333 23.466667-104.106667 67.413333h205.44c-8.746667-43.946667-51.413333-67.413333-101.333333-67.413333zM856.96 85.333333c0-4.48-10.24-10.24-14.72-10.24h-661.333333a29.44 29.44 0 0 0-11.733334 5.76 5.12 5.12 0 0 1-1.493333 2.986667c0 1.493333 0 2.986667 1.493333 2.986667l80.64 132.053333c1.493333 2.986667 0 7.253333 0 11.733333V478.506667c0 92.373333 82.133333 180.48 178.986667 224.426666a177.066667 177.066667 0 0 0 83.2 14.72 193.706667 193.706667 0 0 0 86.613333-16.213333c98.346667-35.2 176-132.053333 176-222.933333v-245.12c0-4.48-1.493333-8.746667 0-11.733334l76.373334-126.08a14.933333 14.933333 0 0 1 8.746666-7.253333c-4.48 1.493333-2.986667-1.493333-2.986666-2.986667z m0 0"  horiz-adv-x="1024" />

    
    <glyph glyph-name="amine" unicode="&#58886;" d="M377.6 252.586667h21.333333v-213.333334a49.92 49.92 0 0 1 49.92-50.133333h124.373334a49.92 49.92 0 0 1 49.706666 50.133333v213.333334h23.466667a52.48 52.48 0 0 1 52.266667 52.48v184.106666c0 20.053333-8.96 120.106667-186.24 120.106667-181.973333 0-187.093333-107.733333-187.093334-120.106667v-184.106666a52.48 52.48 0 0 1 52.266667-52.48zM362.666667 489.173333c0 13.866667 7.253333 82.56 149.333333 82.56s149.333333-68.906667 149.333333-82.56v-184.106666a14.933333 14.933333 0 0 0-14.933333-14.933334h-22.4v149.333334a18.773333 18.773333 0 1 1-37.333333 0v-399.573334a12.586667 12.586667 0 0 0-12.373334-12.586666h-124.586666a12.586667 12.586667 0 0 0-12.373334 12.586666V440.32a18.773333 18.773333 0 1 1-37.333333 0v-149.333333h-21.333333a14.933333 14.933333 0 0 0-14.933334 14.933333v183.253333z m522.666666-443.093333c0-85.333333-192-131.413333-373.333333-131.413333S138.666667-39.253333 138.666667 46.08c0 55.04 82.773333 100.053333 221.226666 120.533333a18.773333 18.773333 0 0 0 5.546667-37.12c-124.373333-18.346667-189.44-55.893333-189.44-83.413333 0-39.253333 128-93.866667 336-93.866667s336 54.613333 336 93.866667c0 27.52-65.066667 65.066667-189.44 83.413333a18.773333 18.773333 0 0 0-15.786667 21.333334 18.56 18.56 0 0 0 21.333334 15.786666c138.453333-21.333333 221.226667-65.493333 221.226666-120.533333zM512 628.053333a112.64 112.64 0 1 1-112 112.64A112.426667 112.426667 0 0 1 512 628.053333z m0 187.733334a75.093333 75.093333 0 1 0-74.666667-75.093334A74.88 74.88 0 0 0 512 815.786667z"  horiz-adv-x="1024" />

    
    <glyph glyph-name="application" unicode="&#58887;" d="M520.746667 373.333333a21.333333 21.333333 0 0 0-8.533334 1.706667L66.133333 568.96a21.333333 21.333333 0 0 0 0 39.04l462.933334 208.426667a21.333333 21.333333 0 0 0 18.346666 0L960 607.573333a21.333333 21.333333 0 0 0 0-38.4l-430.506667-193.92a21.333333 21.333333 0 0 0-8.746666-1.92zM128 588.8l393.386667-170.666667 379.306666 170.666667-362.666666 183.68zM520.746667-50.346667a21.333333 21.333333 0 0 0-8.533334 1.706667L66.133333 145.28a21.333333 21.333333 0 0 0 0 39.04l153.173334 68.906667a21.333333 21.333333 0 0 0 17.28 0l283.946666-123.52L799.146667 256a21.333333 21.333333 0 0 0 18.346666 0L960 183.893333a21.333333 21.333333 0 0 0 0-38.4l-430.506667-193.92a21.333333 21.333333 0 0 0-8.746666-1.92zM128 165.333333l393.386667-170.666666 379.306666 170.666666L807.466667 213.333333l-277.333334-125.653333a21.333333 21.333333 0 0 0-17.28 0l-285.013333 122.88zM520.746667 162.133333a21.333333 21.333333 0 0 0-8.533334 1.706667L66.133333 357.973333a21.333333 21.333333 0 0 0 0 39.04l153.173334 68.906667a21.333333 21.333333 0 0 0 17.28 0L520.533333 341.333333l278.613334 128a21.333333 21.333333 0 0 0 18.346666 0L960 396.586667a21.333333 21.333333 0 0 0 0-38.4l-430.506667-194.133334a21.333333 21.333333 0 0 0-8.746666-1.92zM128 377.813333l393.386667-170.666666 379.306666 170.666666-92.373333 46.72L529.493333 298.666667a21.333333 21.333333 0 0 0-17.493333 0l-284.16 124.373333z"  horiz-adv-x="1024" />

    


  </font>
</defs>
</svg>
